<?xml version="1.0" encoding="utf-8"?>
<!-- Generator: Adobe Illustrator 18.1.0, SVG Export Plug-In . SVG Version: 6.00 Build 0)  -->
<svg version="1.1" id="Layer_1" xmlns="http://www.w3.org/2000/svg" xmlns:xlink="http://www.w3.org/1999/xlink" x="0px" y="0px"
	 viewBox="0 0 550 550" enable-background="new 0 0 550 550" xml:space="preserve">
<g>
	<path fill="#90A23A" d="M499.6,228.7l33.3-6.9c-4-19-10-37.6-18.1-55.3l-30.9,14.1C490.9,196,496.1,212.2,499.6,228.7z"/>
	<path fill="#EA2B7B" d="M211.9,55.5l-9.4-32.7c-6.9,2-13.8,4.3-20.6,6.9L194,61.5C199.9,59.2,205.9,57.2,211.9,55.5z"/>
	<path fill="#D6DE26" d="M347.5,58.1l10.7-32.3c-16.5-5.5-33.4-9.3-50.3-11.3l-4.2,33.7C318.4,50.1,333.1,53.3,347.5,58.1z"/>
	<path fill="#644399" d="M52.5,222.9l-33.1-7.8c-10.4,44.1-9.1,89.7,3,132.3l32.7-9.3C44.6,301,43.4,261.4,52.5,222.9z"/>
	<path fill="#77BF43" d="M209.3,530.2c3.3,0.9,6.7,1.7,10,2.4l7.2-33.2c-2.9-0.6-5.8-1.3-8.7-2.1L209.3,530.2z"/>
	<path fill="#3A6396" d="M330.8,497.8l8.2,33c35.5-8.8,69.1-25,98.4-47.9l-20.9-26.8C390.9,476,361.6,490.1,330.8,497.8z"/>
	<path fill="#673454" d="M227.3,499.5l-7.1,33.3c8.5,1.8,17,3.2,25.6,4.2l3.8-33.8C242.1,502.3,234.7,501.1,227.3,499.5z"/>
	<path fill="#4A7467" d="M249.6,503.1l-3.8,33.8c10.7,1.2,21.5,1.7,32.2,1.6l-0.3-34C268.3,504.7,258.9,504.2,249.6,503.1z"/>
	<path fill="#BC6D29" d="M277.6,504.6l0.3,34c20.6-0.2,41.1-2.9,61-7.8l-8.2-33C313.4,502.1,295.6,504.4,277.6,504.6z"/>
	<path fill="#A24B5D" d="M157,471.6l-17.6,29.1c22.3,13.5,45.9,23.3,69.9,29.5l8.5-32.9C196.9,491.8,176.4,483.3,157,471.6z"/>
	<path fill="#3D5BA6" d="M471.7,393.6l29.2,17.5c4.9-8.3,9.4-16.7,13.4-25.2l-30.9-14.3C479.9,379,476,386.4,471.7,393.6z"/>
	<path fill="#8D662A" d="M483.3,371.6l30.9,14.3c7.2-15.4,12.7-31.3,16.7-47.3l-33-8.1C494.4,344.3,489.6,358.2,483.3,371.6z"/>
	<path fill="#00A59B" d="M497.9,330.4l33,8.1c2.6-10.6,4.6-21.3,5.8-32l-33.8-4C501.8,311.8,500.1,321.1,497.9,330.4z"/>
	<path fill="#D82F27" d="M502.9,302.5l33.8,4c0.4-3.2,0.7-6.5,0.9-9.7l-33.9-2.8C503.5,296.9,503.2,299.7,502.9,302.5z"/>
	<path fill="#3D5BA6" d="M503.7,294l33.9,2.8c1.2-14.2,1.1-28.5-0.1-42.6l-33.9,2.8C504.7,269.2,504.7,281.6,503.7,294z"/>
	<path fill="#80695E" d="M532.9,221.8l-33.3,6.9c2,9.3,3.3,18.7,4.1,28.2l33.9-2.8C536.7,243.2,535.1,232.4,532.9,221.8z"/>
	<path fill="#A3415B" d="M483.8,180.6l30.9-14.1c-3.4-7.6-7.2-15-11.4-22.2l-29.5,17C477.5,167.5,480.9,174,483.8,180.6z"/>
	<path fill="#3D5CA9" d="M473.9,161.2l29.5-17c-7.5-12.9-16-25.3-25.6-36.9l-26.1,21.7C460,139.2,467.4,150,473.9,161.2z"/>
	<path fill="#00A59B" d="M451.6,129.1l26.1-21.7c-18-21.7-39.9-40.9-65.4-56.4l-17.7,29C416.8,93.5,435.9,110.2,451.6,129.1z"/>
	<path fill="#8F288C" d="M394.2,79.7c0.2,0.1,0.3,0.2,0.5,0.3l17.7-29c-0.2-0.1-0.3-0.2-0.5-0.3c-9.3-5.7-18.8-10.6-28.5-15l-14,31
		C377.8,70.5,386.1,74.8,394.2,79.7z"/>
	<path fill="#2A3B8F" d="M369.4,66.7l14-31c-8.3-3.7-16.7-7-25.1-9.8l-10.7,32.3C354.9,60.6,362.2,63.4,369.4,66.7z"/>
	<path fill="#7ECDCA" d="M303.7,48.2l4.2-33.7c-35.5-4.4-71.4-1.4-105.4,8.4l9.4,32.7C241.5,47,272.7,44.4,303.7,48.2z"/>
	<path fill="#BE202E" d="M194,61.5l-12.1-31.8c-12,4.6-23.8,10-35,16.3l16.6,29.7C173.3,70.2,183.5,65.5,194,61.5z"/>
	<path fill="#C88571" d="M163.5,75.7L146.9,46c-14.1,7.9-27.6,17.1-40.2,27.6l21.8,26.1C139.5,90.6,151.2,82.6,163.5,75.7z"/>
	<path fill="#6F9C41" d="M128.5,99.8l-21.8-26.1c-21.4,17.8-40.2,39.4-55.6,64.5l29,17.8C93.5,134.1,109.9,115.3,128.5,99.8z"/>
	<path fill="#F2A839" d="M79.6,156.7c0.2-0.3,0.4-0.6,0.5-0.9l-29-17.8c-0.2,0.3-0.4,0.6-0.6,1c-14.7,24.2-25,49.9-31.2,76l33.1,7.8
		C57.8,200.1,66.8,177.8,79.6,156.7z"/>
	<path fill="#779343" d="M55.1,338.1l-32.7,9.3c2.2,7.9,4.9,15.7,7.8,23.4l31.7-12.3C59.4,351.8,57.1,345,55.1,338.1z"/>
	<path fill="#F5C937" d="M61.9,358.5l-31.7,12.3c2.8,7.3,6,14.5,9.4,21.5l30.5-15.1C67.1,371.1,64.4,364.8,61.9,358.5z"/>
	<path fill="#A44A2A" d="M70.2,377.2l-30.5,15.1c9.4,19,21.1,36.9,35,53.4l25.9-22C88.5,409.4,78.3,393.7,70.2,377.2z"/>
	<path fill="#52808D" d="M100.7,423.6l-25.9,22c4,4.8,8.2,9.4,12.6,13.9l24.3-23.8C107.8,431.8,104.2,427.8,100.7,423.6z"/>
	<path fill="#999145" d="M156.6,471.4c-16.8-10.2-31.8-22.2-44.9-35.6l-24.3,23.8c15.1,15.4,32.3,29.2,51.6,40.9
		c0.1,0.1,0.3,0.2,0.4,0.2l17.6-29.1C156.9,471.5,156.7,471.4,156.6,471.4z"/>
	<path fill="#F05A29" d="M471.2,394.3c-14.9,24.4-33.5,45.1-54.8,61.8l20.9,26.8c24.4-19.1,45.9-42.8,62.9-70.9
		c0.2-0.3,0.4-0.6,0.5-0.9l-29.2-17.5C471.5,393.8,471.4,394.1,471.2,394.3z"/>
</g>
<text transform="matrix(1 0 0 1 193.9971 348.8105)"><tspan x="0" y="0" fill="#414141" font-family="'BentonSans-Light'" font-size="92.322"> </tspan><tspan x="19.9" y="0" fill="#FFFFFF" font-family="'BentonSans-Light'" font-size="92.322">Art</tspan><tspan x="149.3" y="0" fill="#FFFFFF" font-family="'BentonSans-Light'" font-size="92.322" letter-spacing="5">s</tspan><tspan x="201" y="7.6" fill="#D65328" font-family="'BentonSans-ExtraLight'" font-size="92.5482" letter-spacing="12">&amp;</tspan><tspan x="13.8" y="75.7" fill="#FFFFFF" font-family="'BentonSans-Light'" font-size="92.322">Ideas</tspan><tspan x="238.6" y="75.7" fill="#414141" font-family="'BentonSans-Regular'" font-size="92.322" letter-spacing="-5">  </tspan></text>
</svg>
